<svg id="Capa_1" enable-background="new 0 0 512 512" height="512" viewBox="0 0 512 512" width="512" xmlns="http://www.w3.org/2000/svg"><g><path d="m497.5 431.251h-9.045v-20.5c0-4.143-3.357-7.5-7.5-7.5s-7.5 3.357-7.5 7.5v20.5h-22.22v-32.079c0-9.733-7.918-17.651-17.651-17.651h-40.213c-9.732 0-17.65 7.918-17.65 17.651v32.079h-29.509v-32.079c0-9.733-7.918-17.651-17.65-17.651h-40.213c-9.733 0-17.651 7.918-17.651 17.651v32.079h-29.508v-32.079c0-9.733-7.918-17.651-17.651-17.651h-40.213c-9.732 0-17.65 7.918-17.65 17.651v32.079h-29.509v-32.079c0-9.733-7.918-17.651-17.65-17.651h-40.214c-9.733 0-17.651 7.918-17.651 17.651v32.079h-22.22v-77.364h435.023v21.864c0 4.143 3.357 7.5 7.5 7.5s7.5-3.357 7.5-7.5v-22.258c0-8.054-6.552-14.606-14.605-14.606h-9.418c0-10.851 0-298.695 0-303.394 0-8.054-6.552-14.606-14.605-14.606h-212.469c-8.054 0-14.605 6.553-14.605 14.606v83.966h-106.536c-8.613 0-15.621 7.007-15.621 15.62v59.727h-38.534c-8.054 0-14.605 6.552-14.605 14.605v56.89c0 4.143 3.357 7.5 7.5 7.5s7.5-3.357 7.5-7.5v-15.953h38.14v10.146c0 6.885 4.594 13.041 11.236 14.995v63.398h-49.377v-37.586c0-4.143-3.357-7.5-7.5-7.5s-7.5 3.357-7.5 7.5v37.586h-9.419c-8.054 0-14.605 6.553-14.605 14.606v77.758h-8.932c-7.995 0-14.5 6.505-14.5 14.5v30.862c0 7.995 6.505 14.5 14.5 14.5h483c7.995 0 14.5-6.505 14.5-14.5v-30.862c0-7.995-6.505-14.5-14.5-14.5zm-396.904-195.903h-38.14v-25.542h38.14zm75.613 103.539h-49.377v-62.772h49.377zm64.376 0h-49.376v-62.772h49.376zm64.377 0h-49.377v-63.398c6.555-1.917 11.236-8.041 11.236-14.995v-10.146h38.141zm0-103.539h-38.141v-25.542h38.141zm144.47 103.539h-129.47v-14.562h129.47zm-129.47-29.562c0-9.79 0-79.175 0-88.815h15.45v88.815zm30.45 0v-88.814h41.33v88.814zm99.02 0h-42.689v-88.814h42.689zm0-103.815c-7.104 0-126.114 0-129.999 0-1.742-6.265-7.516-10.704-14.076-10.704h-38.535v-14.837h182.61zm-155.349-40.541v-88.539h41.329v88.539zm56.329 0v-88.539h41.33v88.539zm99.02 0h-42.689v-88.539h42.689zm-211.679-129.082h211.679v25.542c-5.748 0-150.023 0-211.679 0zm0 40.543h41.33v88.539h-12.262v-29.89c0-8.613-7.007-15.62-15.62-15.62h-13.448zm-121.536 58.029c144.171 0 135.604-.343 135.604.62v125.414c0 .343-.278.621-.62.621-7.574 0-127.413 0-134.984 0-.343 0-.621-.278-.621-.621 0-133.167-.379-126.034.621-126.034zm274.504 264.713c0-1.462 1.189-2.651 2.65-2.651h40.213c1.462 0 2.651 1.189 2.651 2.651v32.079h-45.515v-32.079zm-105.024 0c0-1.462 1.189-2.651 2.651-2.651h40.213c1.461 0 2.65 1.189 2.65 2.651v32.079c-10.166 0-35.392 0-45.515 0v-32.079zm-105.022 0c0-1.462 1.189-2.651 2.65-2.651h40.213c1.462 0 2.651 1.189 2.651 2.651v32.079h-45.515v-32.079zm-105.024 0c0-1.462 1.189-2.651 2.651-2.651h40.213c1.461 0 2.65 1.189 2.65 2.651v32.079h-45.514zm421.349 76.941h-482v-29.862h482z"/><path d="m146.886 248.435h73.646c7.205 0 13.067-5.862 13.067-13.068v-50.785c0-7.205-5.862-13.067-13.067-13.067h-16.945v-4.497c0-10.961-8.917-19.878-19.878-19.878s-19.878 8.917-19.878 19.878v4.497h-16.945c-7.205 0-13.067 5.862-13.067 13.067v50.785c-.001 7.205 5.862 13.068 13.067 13.068zm31.945-81.418c0-2.689 2.188-4.878 4.878-4.878s4.878 2.188 4.878 4.878v4.497h-9.756zm-30.013 19.497h69.782v46.921h-69.781v-46.921z"/></g></svg>