<?xml version="1.0"?>
<svg xmlns="http://www.w3.org/2000/svg" viewBox="0 0 64 64" width="512" height="512"><g id="Relax"><rect x="31" y="30" width="2" height="2"/><path d="M55,34a3,3,0,0,0-3,3v4a1,1,0,0,0,1,1h4a1,1,0,0,0,1-1V37A3,3,0,0,0,55,34Zm1,6H54V37a1,1,0,0,1,2,0Z"/><path d="M12,41V37a3,3,0,0,0-6,0v4a1,1,0,0,0,1,1h4A1,1,0,0,0,12,41Zm-2-1H8V37a1,1,0,0,1,2,0Z"/><path d="M59.88,31.97A6.941,6.941,0,0,0,56,30.08V20a5,5,0,0,0-5-5H36.58a4.861,4.861,0,0,0,.32-1H40a1,1,0,0,0,1-1V9a1,1,0,0,0-1-1V7a5,5,0,0,0-5-5H29a5,5,0,0,0-5,5V8a1,1,0,0,0-1,1v4a1,1,0,0,0,1,1h3.1a4.861,4.861,0,0,0,.32,1H13a5,5,0,0,0-5,5V30.08a7.226,7.226,0,0,0-6,7.17V51a5,5,0,0,0,5,5h3v5a1,1,0,0,0,1,1h4a1.014,1.014,0,0,0,.95-.68L17.72,56h1.17l.26.26a.992.992,0,0,0,.71.3.97.97,0,0,0,.7-.3,1.783,1.783,0,0,0,.22-.26H23v2.03A4.939,4.939,0,0,0,22,61a1,1,0,0,0,1,1h8a1,1,0,0,0,1-1,4.939,4.939,0,0,0-1-2.97V56H46.28l1.77,5.32A1.014,1.014,0,0,0,49,62h4a1,1,0,0,0,1-1V56h3a5,5,0,0,0,5-5V37A6.972,6.972,0,0,0,59.88,31.97ZM51,17a3.009,3.009,0,0,1,3,3V30.08a7.226,7.226,0,0,0-6,7.17V40H45V27a7.008,7.008,0,0,0-7-7H36.41L35,18.59V17ZM24.09,36l.83-10H39.08l.79,9.49A3.944,3.944,0,0,0,38,35H30a1.033,1.033,0,0,0-.71.29l-.7.71Zm2.5,2-1.85,1.84L24.28,38ZM16,44V42h6.59l-2,2Zm2.59,2-1.75,1.75a4.929,4.929,0,0,0-3.35,1.44.209.209,0,0,1-.04.06A1.955,1.955,0,0,1,13,48a2.006,2.006,0,0,1,2-2ZM21,40V38h1.22l.5,2Zm0-4V30h1.58l-.5,6Zm0-8V27a5,5,0,0,1,5-5h1.59l2,2H24a1.01,1.01,0,0,0-1,.92L22.75,28ZM31.06,10.03l3.94.79V13a3,3,0,0,1-6,0V10.72ZM29.04,8.6a2.986,2.986,0,0,1,5.94.18L31.2,8.02a1.017,1.017,0,0,0-.52.03Zm4.25,11.11L34.59,21,32,23.59,29.41,21l1.3-1.29A1.033,1.033,0,0,0,31,19V17.9a5.05,5.05,0,0,0,2,0V19A1.033,1.033,0,0,0,33.29,19.71ZM34.41,24l2-2H38a5,5,0,0,1,5,5v1H41.25L41,24.92A1.01,1.01,0,0,0,40,24Zm7.45,14H43v2H41.86A4.16,4.16,0,0,0,42,39,4.091,4.091,0,0,0,41.86,38Zm.06-2-.5-6H43v6Zm-1.3,6H48v2H31.41l1-1H38A3.963,3.963,0,0,0,40.62,42ZM49,46a2.015,2.015,0,0,1,2,2,2.006,2.006,0,0,1-2,2H31V46ZM39,10v2H37V10ZM27,12H25V10h2Zm.1-4H26V7a3.009,3.009,0,0,1,3-3h6a3.009,3.009,0,0,1,3,3V8H36.9a5,5,0,0,0-9.8,0ZM10,20a3.009,3.009,0,0,1,3-3H29v1.59L27.59,20H26a7.008,7.008,0,0,0-7,7V40H16V37a6.956,6.956,0,0,0-6-6.92Zm4.28,40H12V56h3.61ZM7,54a3.009,3.009,0,0,1-3-3V37.25A5.179,5.179,0,0,1,8.85,32,5,5,0,0,1,14,37v7.14a3.987,3.987,0,0,0,.88,7.85L16.89,54Zm12.74,0h-.02l-3.98-3.98a3.054,3.054,0,0,1,3.41.59,2.956,2.956,0,0,1,.88,2.12A2.885,2.885,0,0,1,19.74,54ZM23,54H21.85c.04-.18.08-.36.11-.54L23,52.41Zm1.17,6a3,3,0,0,1,5.66,0ZM25,56.42V50.41l4-4V56.42a4.972,4.972,0,0,0-4,0Zm-3.32-5.51a4.965,4.965,0,0,0-1.12-1.72,5.034,5.034,0,0,0-1.38-.96L30.41,37H38a2.006,2.006,0,0,1,2,2,2.015,2.015,0,0,1-2,2H32a1.033,1.033,0,0,0-.71.29ZM52,60H49.72l-1.33-4H52Zm8-9a3.009,3.009,0,0,1-3,3H31V52H49a4,4,0,0,0,2.83-6.83A4.084,4.084,0,0,0,50,44.14V37.25A5.179,5.179,0,0,1,54.85,32,5,5,0,0,1,60,37Z"/><rect x="12" y="19" width="2" height="2"/><rect x="50" y="19" width="2" height="2"/><path d="M13,12V5.721l4-1.334V9H15v2h3a1,1,0,0,0,1-1V3a1,1,0,0,0-1.316-.949l-6,2A1,1,0,0,0,11,5v6H9v2h3A1,1,0,0,0,13,12Z"/><path d="M47,12a1,1,0,0,0,.707-.293l4.49-4.49L55.553,8.9l.894-1.79-4-2a1,1,0,0,0-1.154.188L47,9.586,45.707,8.293,44.293,9.707l2,2A1,1,0,0,0,47,12Z"/></g></svg>
