<svg id="Layer_5" enable-background="new 0 0 64 64" height="512" viewBox="0 0 64 64" width="512" xmlns="http://www.w3.org/2000/svg"><path d="m1 61h2v2h-2z"/><path d="m61 61h2v2h-2z"/><path d="m60.032 17.995-28.032-11.07-28.032 11.07c-1.803.712-2.968 2.413-2.968 4.335 0 1.538.764 2.976 2.044 3.846 1.166.794 2.613 1.017 3.956.639v22.185h-2v6h2v6h-2v2h18 18 18v-2h-2v-6h2v-6h-2v-22.202c.424.12.855.2 1.288.2.938 0 1.869-.278 2.668-.822 1.28-.871 2.044-2.308 2.044-3.846 0-1.922-1.165-3.623-2.968-4.335zm-53.032 33.005h12v2h-12zm2 4h8v6h-8zm16 6v-13c0-3.86 3.141-7 7-7s7 3.14 7 7v13zm30 0h-8v-6h8zm2-8h-12v-2h12zm-14-4v6h2v6h-4v-13c0-4.962-4.037-9-9-9s-9 4.038-9 9v13h-4v-6h2v-6h-12v-22.944l23-9.083 23 9.083v22.944zm16.831-24.478c-.763.519-1.694.623-2.557.282l-25.274-9.981-25.274 9.981c-.862.34-1.794.236-2.557-.282-.743-.505-1.169-1.304-1.169-2.192 0-1.095.668-2.066 1.702-2.474l27.298-10.781 27.298 10.78c1.034.409 1.702 1.38 1.702 2.475 0 .888-.426 1.687-1.169 2.192z"/><path d="m27 51h2v2h-2z"/><path d="m32 21c-4.411 0-8 3.589-8 8s3.589 8 8 8 8-3.589 8-8-3.589-8-8-8zm5.91 7h-4.91v-4.91c2.507.424 4.486 2.403 4.91 4.91zm-6.91-4.91v4.91h-4.91c.424-2.507 2.403-4.486 4.91-4.91zm-4.91 6.91h4.91v4.91c-2.507-.424-4.486-2.403-4.91-4.91zm6.91 4.91v-4.91h4.91c-.424 2.507-2.403 4.486-4.91 4.91z"/><path d="m49 26h-2c0 2.206-1.794 4-4 4v2c2.206 0 4 1.794 4 4h2c0-2.206 1.794-4 4-4v-2c-2.206 0-4-1.794-4-4zm-1 6.687c-.444-.668-1.019-1.242-1.687-1.687.668-.444 1.242-1.019 1.687-1.687.444.668 1.019 1.242 1.687 1.687-.668.444-1.243 1.019-1.687 1.687z"/><path d="m59 5h-2c0 2.206-1.794 4-4 4v2c2.206 0 4 1.794 4 4h2c0-2.206 1.794-4 4-4v-2c-2.206 0-4-1.794-4-4zm-1 6.687c-.444-.668-1.019-1.242-1.687-1.687.668-.444 1.243-1.019 1.687-1.687.444.668 1.019 1.242 1.687 1.687-.668.444-1.243 1.019-1.687 1.687z"/><path d="m17 36h-2c0 2.206-1.794 4-4 4v2c2.206 0 4 1.794 4 4h2c0-2.206 1.794-4 4-4v-2c-2.206 0-4-1.794-4-4zm-1 6.687c-.444-.668-1.019-1.242-1.687-1.687.668-.444 1.242-1.019 1.687-1.687.444.668 1.019 1.242 1.687 1.687-.668.444-1.243 1.019-1.687 1.687z"/><path d="m11 11h2c0-2.206 1.794-4 4-4v-2c-2.206 0-4-1.794-4-4h-2c0 2.206-1.794 4-4 4v2c2.206 0 4 1.794 4 4zm1-6.687c.444.668 1.019 1.243 1.687 1.687-.668.444-1.243 1.019-1.687 1.687-.444-.668-1.019-1.243-1.687-1.687.668-.444 1.243-1.019 1.687-1.687z"/></svg>